<?xml version="1.0" encoding="UTF-8" standalone="no"?>
<!DOCTYPE svg PUBLIC "-//W3C//DTD SVG 1.1//EN"
 "http://www.w3.org/Graphics/SVG/1.1/DTD/svg11.dtd">
<!-- Generated by graphviz version 2.43.0 (0)
 -->
<!-- Title: nfae Pages: 1 -->
<svg width="93pt" height="487pt"
 viewBox="0.00 0.00 93.00 487.00" xmlns="http://www.w3.org/2000/svg" xmlns:xlink="http://www.w3.org/1999/xlink">
<g id="graph0" class="graph" transform="scale(1 1) rotate(0) translate(4 483)">
<title>nfae</title>
<polygon fill="white" stroke="transparent" points="-4,4 -4,-483 89,-483 89,4 -4,4"/>
<!-- q3 -->
<g id="node1" class="node">
<title>q3</title>
<ellipse fill="none" stroke="black" cx="54" cy="-374" rx="27" ry="18"/>
<text text-anchor="middle" x="54" y="-370.3" font-family="Times,serif" font-size="14.00">q3</text>
</g>
<!-- q2 -->
<g id="node6" class="node">
<title>q2</title>
<ellipse fill="none" stroke="black" cx="54" cy="-287" rx="27" ry="18"/>
<text text-anchor="middle" x="54" y="-283.3" font-family="Times,serif" font-size="14.00">q2</text>
</g>
<!-- q3&#45;&gt;q2 -->
<g id="edge5" class="edge">
<title>q3&#45;&gt;q2</title>
<path fill="none" stroke="black" d="M54,-355.8C54,-344.16 54,-328.55 54,-315.24"/>
<polygon fill="black" stroke="black" points="57.5,-315.18 54,-305.18 50.5,-315.18 57.5,-315.18"/>
<text text-anchor="middle" x="59" y="-326.8" font-family="Times,serif" font-size="14.00">b</text>
</g>
<!-- q4 -->
<g id="node2" class="node">
<title>q4</title>
<ellipse fill="none" stroke="black" cx="27" cy="-200" rx="27" ry="18"/>
<text text-anchor="middle" x="27" y="-196.3" font-family="Times,serif" font-size="14.00">q4</text>
</g>
<!-- q5 -->
<g id="node4" class="node">
<title>q5</title>
<ellipse fill="none" stroke="black" cx="27" cy="-113" rx="27" ry="18"/>
<text text-anchor="middle" x="27" y="-109.3" font-family="Times,serif" font-size="14.00">q5</text>
</g>
<!-- q4&#45;&gt;q5 -->
<g id="edge7" class="edge">
<title>q4&#45;&gt;q5</title>
<path fill="none" stroke="black" d="M19.59,-182.45C16.12,-172.77 13.12,-160.27 15,-149 15.49,-146.09 16.18,-143.1 17,-140.14"/>
<polygon fill="black" stroke="black" points="20.39,-141.03 20.11,-130.44 13.72,-138.9 20.39,-141.03"/>
<text text-anchor="middle" x="19" y="-152.8" font-family="Times,serif" font-size="14.00">c</text>
</g>
<!-- q0 -->
<g id="node3" class="node">
<title>q0</title>
<ellipse fill="none" stroke="blue" cx="54" cy="-461" rx="27" ry="18"/>
<text text-anchor="middle" x="54" y="-457.3" font-family="Times,serif" font-size="14.00">q0</text>
</g>
<!-- q0&#45;&gt;q3 -->
<g id="edge4" class="edge">
<title>q0&#45;&gt;q3</title>
<path fill="none" stroke="black" d="M54,-442.8C54,-431.16 54,-415.55 54,-402.24"/>
<polygon fill="black" stroke="black" points="57.5,-402.18 54,-392.18 50.5,-402.18 57.5,-402.18"/>
<text text-anchor="middle" x="58.5" y="-413.8" font-family="Times,serif" font-size="14.00">a</text>
</g>
<!-- q5&#45;&gt;q4 -->
<g id="edge3" class="edge">
<title>q5&#45;&gt;q4</title>
<path fill="none" stroke="black" d="M27,-131.18C27,-142.81 27,-158.42 27,-171.73"/>
<polygon fill="black" stroke="black" points="23.5,-171.8 27,-181.8 30.5,-171.8 23.5,-171.8"/>
<text text-anchor="middle" x="31" y="-152.8" font-family="Times,serif" font-size="14.00">ε</text>
</g>
<!-- q1 -->
<g id="node5" class="node">
<title>q1</title>
<ellipse fill="none" stroke="black" cx="54" cy="-22" rx="27" ry="18"/>
<ellipse fill="none" stroke="black" cx="54" cy="-22" rx="31" ry="22"/>
<text text-anchor="middle" x="54" y="-18.3" font-family="Times,serif" font-size="14.00">q1</text>
</g>
<!-- q5&#45;&gt;q1 -->
<g id="edge2" class="edge">
<title>q5&#45;&gt;q1</title>
<path fill="none" stroke="black" d="M32.08,-95.26C35.64,-83.51 40.51,-67.46 44.76,-53.47"/>
<polygon fill="black" stroke="black" points="48.15,-54.32 47.71,-43.74 41.46,-52.29 48.15,-54.32"/>
<text text-anchor="middle" x="47" y="-65.8" font-family="Times,serif" font-size="14.00">ε</text>
</g>
<!-- q2&#45;&gt;q4 -->
<g id="edge1" class="edge">
<title>q2&#45;&gt;q4</title>
<path fill="none" stroke="black" d="M48.67,-269.21C44.89,-257.33 39.76,-241.17 35.44,-227.56"/>
<polygon fill="black" stroke="black" points="38.69,-226.23 32.32,-217.76 32.01,-228.35 38.69,-226.23"/>
<text text-anchor="middle" x="47" y="-239.8" font-family="Times,serif" font-size="14.00">ε</text>
</g>
<!-- q2&#45;&gt;q1 -->
<g id="edge6" class="edge">
<title>q2&#45;&gt;q1</title>
<path fill="none" stroke="black" d="M56.88,-269.01C59.05,-255.3 61.85,-235.47 63,-218 66.59,-163.45 66.4,-149.56 63,-95 62.16,-81.54 60.45,-66.75 58.74,-54.1"/>
<polygon fill="black" stroke="black" points="62.19,-53.46 57.33,-44.04 55.26,-54.43 62.19,-53.46"/>
<text text-anchor="middle" x="69" y="-152.8" font-family="Times,serif" font-size="14.00">ε</text>
</g>
</g>
</svg>
