<?xml version="1.0" encoding="UTF-8" standalone="no"?>
<!DOCTYPE svg PUBLIC "-//W3C//DTD SVG 1.1//EN"
 "http://www.w3.org/Graphics/SVG/1.1/DTD/svg11.dtd">
<!-- Generated by graphviz version 2.43.0 (0)
 -->
<!-- Title: nfae Pages: 1 -->
<svg width="215pt" height="661pt"
 viewBox="0.00 0.00 215.00 661.00" xmlns="http://www.w3.org/2000/svg" xmlns:xlink="http://www.w3.org/1999/xlink">
<g id="graph0" class="graph" transform="scale(1 1) rotate(0) translate(4 657)">
<title>nfae</title>
<polygon fill="white" stroke="transparent" points="-4,4 -4,-657 211,-657 211,4 -4,4"/>
<!-- q0 -->
<g id="node1" class="node">
<title>q0</title>
<ellipse fill="none" stroke="blue" cx="37" cy="-635" rx="27" ry="18"/>
<text text-anchor="middle" x="37" y="-631.3" font-family="Times,serif" font-size="14.00">q0</text>
</g>
<!-- q3 -->
<g id="node9" class="node">
<title>q3</title>
<ellipse fill="none" stroke="black" cx="37" cy="-548" rx="27" ry="18"/>
<text text-anchor="middle" x="37" y="-544.3" font-family="Times,serif" font-size="14.00">q3</text>
</g>
<!-- q0&#45;&gt;q3 -->
<g id="edge3" class="edge">
<title>q0&#45;&gt;q3</title>
<path fill="none" stroke="black" d="M37,-616.8C37,-605.16 37,-589.55 37,-576.24"/>
<polygon fill="black" stroke="black" points="40.5,-576.18 37,-566.18 33.5,-576.18 40.5,-576.18"/>
<text text-anchor="middle" x="41.5" y="-587.8" font-family="Times,serif" font-size="14.00">a</text>
</g>
<!-- q7 -->
<g id="node2" class="node">
<title>q7</title>
<ellipse fill="none" stroke="black" cx="180" cy="-287" rx="27" ry="18"/>
<text text-anchor="middle" x="180" y="-283.3" font-family="Times,serif" font-size="14.00">q7</text>
</g>
<!-- q5 -->
<g id="node5" class="node">
<title>q5</title>
<ellipse fill="none" stroke="black" cx="78" cy="-200" rx="27" ry="18"/>
<text text-anchor="middle" x="78" y="-196.3" font-family="Times,serif" font-size="14.00">q5</text>
</g>
<!-- q7&#45;&gt;q5 -->
<g id="edge11" class="edge">
<title>q7&#45;&gt;q5</title>
<path fill="none" stroke="black" d="M163.61,-272.34C147.03,-258.53 121.21,-237.01 102.26,-221.21"/>
<polygon fill="black" stroke="black" points="104.27,-218.34 94.35,-214.62 99.79,-223.71 104.27,-218.34"/>
<text text-anchor="middle" x="139" y="-239.8" font-family="Times,serif" font-size="14.00">ε</text>
</g>
<!-- q8 -->
<g id="node3" class="node">
<title>q8</title>
<ellipse fill="none" stroke="black" cx="108" cy="-374" rx="27" ry="18"/>
<text text-anchor="middle" x="108" y="-370.3" font-family="Times,serif" font-size="14.00">q8</text>
</g>
<!-- q9 -->
<g id="node4" class="node">
<title>q9</title>
<ellipse fill="none" stroke="black" cx="108" cy="-287" rx="27" ry="18"/>
<text text-anchor="middle" x="108" y="-283.3" font-family="Times,serif" font-size="14.00">q9</text>
</g>
<!-- q8&#45;&gt;q9 -->
<g id="edge2" class="edge">
<title>q8&#45;&gt;q9</title>
<path fill="none" stroke="black" d="M108,-355.8C108,-344.16 108,-328.55 108,-315.24"/>
<polygon fill="black" stroke="black" points="111.5,-315.18 108,-305.18 104.5,-315.18 111.5,-315.18"/>
<text text-anchor="middle" x="112" y="-326.8" font-family="Times,serif" font-size="14.00">c</text>
</g>
<!-- q9&#45;&gt;q5 -->
<g id="edge10" class="edge">
<title>q9&#45;&gt;q5</title>
<path fill="none" stroke="black" d="M102.07,-269.21C97.88,-257.33 92.18,-241.17 87.37,-227.56"/>
<polygon fill="black" stroke="black" points="90.54,-226.02 83.91,-217.76 83.94,-228.35 90.54,-226.02"/>
<text text-anchor="middle" x="98" y="-239.8" font-family="Times,serif" font-size="14.00">ε</text>
</g>
<!-- q2 -->
<g id="node6" class="node">
<title>q2</title>
<ellipse fill="none" stroke="black" cx="31" cy="-113" rx="27" ry="18"/>
<text text-anchor="middle" x="31" y="-109.3" font-family="Times,serif" font-size="14.00">q2</text>
</g>
<!-- q5&#45;&gt;q2 -->
<g id="edge8" class="edge">
<title>q5&#45;&gt;q2</title>
<path fill="none" stroke="black" d="M68.94,-182.61C62.13,-170.3 52.69,-153.23 44.93,-139.19"/>
<polygon fill="black" stroke="black" points="47.78,-137.11 39.87,-130.05 41.65,-140.5 47.78,-137.11"/>
<text text-anchor="middle" x="61" y="-152.8" font-family="Times,serif" font-size="14.00">ε</text>
</g>
<!-- q4 -->
<g id="node8" class="node">
<title>q4</title>
<ellipse fill="none" stroke="black" cx="83" cy="-461" rx="27" ry="18"/>
<text text-anchor="middle" x="83" y="-457.3" font-family="Times,serif" font-size="14.00">q4</text>
</g>
<!-- q5&#45;&gt;q4 -->
<g id="edge4" class="edge">
<title>q5&#45;&gt;q4</title>
<path fill="none" stroke="black" d="M76.08,-218.02C74.63,-231.76 72.77,-251.6 72,-269 69.6,-323.61 67.62,-337.51 72,-392 73.09,-405.55 75.38,-420.48 77.59,-432.89"/>
<polygon fill="black" stroke="black" points="74.21,-433.85 79.48,-443.05 81.09,-432.57 74.21,-433.85"/>
<text text-anchor="middle" x="73" y="-326.8" font-family="Times,serif" font-size="14.00">ε</text>
</g>
<!-- q1 -->
<g id="node7" class="node">
<title>q1</title>
<ellipse fill="none" stroke="black" cx="31" cy="-22" rx="27" ry="18"/>
<ellipse fill="none" stroke="black" cx="31" cy="-22" rx="31" ry="22"/>
<text text-anchor="middle" x="31" y="-18.3" font-family="Times,serif" font-size="14.00">q1</text>
</g>
<!-- q2&#45;&gt;q1 -->
<g id="edge5" class="edge">
<title>q2&#45;&gt;q1</title>
<path fill="none" stroke="black" d="M31,-94.84C31,-83.44 31,-68.13 31,-54.58"/>
<polygon fill="black" stroke="black" points="34.5,-54.19 31,-44.19 27.5,-54.19 34.5,-54.19"/>
<text text-anchor="middle" x="36" y="-65.8" font-family="Times,serif" font-size="14.00">d</text>
</g>
<!-- q4&#45;&gt;q8 -->
<g id="edge9" class="edge">
<title>q4&#45;&gt;q8</title>
<path fill="none" stroke="black" d="M87.94,-443.21C91.43,-431.33 96.19,-415.17 100.19,-401.56"/>
<polygon fill="black" stroke="black" points="103.61,-402.34 103.07,-391.76 96.89,-400.36 103.61,-402.34"/>
<text text-anchor="middle" x="100" y="-413.8" font-family="Times,serif" font-size="14.00">ε</text>
</g>
<!-- q6 -->
<g id="node10" class="node">
<title>q6</title>
<ellipse fill="none" stroke="black" cx="180" cy="-374" rx="27" ry="18"/>
<text text-anchor="middle" x="180" y="-370.3" font-family="Times,serif" font-size="14.00">q6</text>
</g>
<!-- q4&#45;&gt;q6 -->
<g id="edge12" class="edge">
<title>q4&#45;&gt;q6</title>
<path fill="none" stroke="black" d="M99.02,-445.96C114.7,-432.22 138.76,-411.14 156.58,-395.52"/>
<polygon fill="black" stroke="black" points="159.07,-398 164.28,-388.77 154.45,-392.73 159.07,-398"/>
<text text-anchor="middle" x="141" y="-413.8" font-family="Times,serif" font-size="14.00">ε</text>
</g>
<!-- q3&#45;&gt;q2 -->
<g id="edge6" class="edge">
<title>q3&#45;&gt;q2</title>
<path fill="none" stroke="black" d="M30.04,-530.39C23.59,-513.49 15,-486.39 15,-462 15,-462 15,-462 15,-199 15,-179.29 19.21,-157.45 23.3,-140.84"/>
<polygon fill="black" stroke="black" points="26.8,-141.32 25.94,-130.76 20.02,-139.55 26.8,-141.32"/>
<text text-anchor="middle" x="19" y="-326.8" font-family="Times,serif" font-size="14.00">ε</text>
</g>
<!-- q3&#45;&gt;q4 -->
<g id="edge7" class="edge">
<title>q3&#45;&gt;q4</title>
<path fill="none" stroke="black" d="M45.87,-530.61C52.53,-518.3 61.77,-501.23 69.37,-487.19"/>
<polygon fill="black" stroke="black" points="72.63,-488.51 74.31,-478.05 66.48,-485.18 72.63,-488.51"/>
<text text-anchor="middle" x="66" y="-500.8" font-family="Times,serif" font-size="14.00">ε</text>
</g>
<!-- q6&#45;&gt;q7 -->
<g id="edge1" class="edge">
<title>q6&#45;&gt;q7</title>
<path fill="none" stroke="black" d="M180,-355.8C180,-344.16 180,-328.55 180,-315.24"/>
<polygon fill="black" stroke="black" points="183.5,-315.18 180,-305.18 176.5,-315.18 183.5,-315.18"/>
<text text-anchor="middle" x="185" y="-326.8" font-family="Times,serif" font-size="14.00">b</text>
</g>
</g>
</svg>
