<?xml version="1.0" encoding="UTF-8" standalone="no"?>
<!DOCTYPE svg PUBLIC "-//W3C//DTD SVG 1.1//EN"
 "http://www.w3.org/Graphics/SVG/1.1/DTD/svg11.dtd">
<!-- Generated by graphviz version 2.43.0 (0)
 -->
<!-- Title: nfae Pages: 1 -->
<svg width="421pt" height="408pt"
 viewBox="0.00 0.00 420.54 408.00" xmlns="http://www.w3.org/2000/svg" xmlns:xlink="http://www.w3.org/1999/xlink">
<g id="graph0" class="graph" transform="scale(1 1) rotate(0) translate(4 404)">
<title>nfae</title>
<polygon fill="white" stroke="transparent" points="-4,4 -4,-404 416.54,-404 416.54,4 -4,4"/>
<!-- q4 -->
<g id="node1" class="node">
<title>q4</title>
<ellipse fill="none" stroke="black" cx="143" cy="-18" rx="27" ry="18"/>
<text text-anchor="middle" x="143" y="-14.3" font-family="Times,serif" font-size="14.00">{}</text>
</g>
<!-- q4&#45;&gt;q4 -->
<g id="edge6" class="edge">
<title>q4&#45;&gt;q4</title>
<path fill="none" stroke="black" d="M169.79,-20.62C179.78,-20.71 188,-19.83 188,-18 188,-16.85 184.79,-16.08 179.94,-15.69"/>
<polygon fill="black" stroke="black" points="179.9,-12.19 169.79,-15.38 179.68,-19.18 179.9,-12.19"/>
<text text-anchor="middle" x="192" y="-14.3" font-family="Times,serif" font-size="14.00">c</text>
</g>
<!-- q4&#45;&gt;q4 -->
<g id="edge7" class="edge">
<title>q4&#45;&gt;q4</title>
<path fill="none" stroke="black" d="M169.21,-22.71C187.7,-24.19 206,-22.62 206,-18 206,-14.25 193.92,-12.5 179.47,-12.78"/>
<polygon fill="black" stroke="black" points="179.03,-9.3 169.21,-13.29 179.38,-16.29 179.03,-9.3"/>
<text text-anchor="middle" x="211" y="-14.3" font-family="Times,serif" font-size="14.00">b</text>
</g>
<!-- q4&#45;&gt;q4 -->
<g id="edge11" class="edge">
<title>q4&#45;&gt;q4</title>
<path fill="none" stroke="black" d="M168.71,-24.14C194.88,-27.76 224,-25.71 224,-18 224,-11.28 201.9,-8.86 178.91,-10.74"/>
<polygon fill="black" stroke="black" points="178.27,-7.29 168.71,-11.86 179.03,-14.25 178.27,-7.29"/>
<text text-anchor="middle" x="228.5" y="-14.3" font-family="Times,serif" font-size="14.00">a</text>
</g>
<!-- q1 -->
<g id="node2" class="node">
<title>q1</title>
<ellipse fill="none" stroke="black" cx="222" cy="-204" rx="69.59" ry="18"/>
<ellipse fill="none" stroke="black" cx="222" cy="-204" rx="73.59" ry="22"/>
<text text-anchor="middle" x="222" y="-200.3" font-family="Times,serif" font-size="14.00">{q1, q2, q4}</text>
</g>
<!-- q1&#45;&gt;q4 -->
<g id="edge4" class="edge">
<title>q1&#45;&gt;q4</title>
<path fill="none" stroke="black" d="M208.14,-182.17C204.41,-176.36 200.45,-169.99 197,-164 188.76,-149.71 186.38,-146.21 180,-131 168.04,-102.51 157.33,-68.69 150.54,-45.73"/>
<polygon fill="black" stroke="black" points="153.87,-44.62 147.71,-36 147.14,-46.58 153.87,-44.62"/>
<text text-anchor="middle" x="184.5" y="-105.3" font-family="Times,serif" font-size="14.00">a</text>
</g>
<!-- q1&#45;&gt;q4 -->
<g id="edge15" class="edge">
<title>q1&#45;&gt;q4</title>
<path fill="none" stroke="black" d="M217.78,-181.88C212.64,-158.18 202.89,-118.86 189,-87 182.15,-71.28 178.57,-68.23 169,-54 166.53,-50.33 163.83,-46.5 161.14,-42.79"/>
<polygon fill="black" stroke="black" points="163.73,-40.41 154.97,-34.45 158.1,-44.58 163.73,-40.41"/>
<text text-anchor="middle" x="209" y="-105.3" font-family="Times,serif" font-size="14.00">b</text>
</g>
<!-- q2 -->
<g id="node3" class="node">
<title>q2</title>
<ellipse fill="none" stroke="black" cx="313" cy="-109" rx="69.59" ry="18"/>
<ellipse fill="none" stroke="black" cx="313" cy="-109" rx="73.59" ry="22"/>
<text text-anchor="middle" x="313" y="-105.3" font-family="Times,serif" font-size="14.00">{q1, q4, q5}</text>
</g>
<!-- q1&#45;&gt;q2 -->
<g id="edge3" class="edge">
<title>q1&#45;&gt;q2</title>
<path fill="none" stroke="black" d="M242.2,-182.36C255.13,-169.15 272.06,-151.84 286.12,-137.47"/>
<polygon fill="black" stroke="black" points="288.68,-139.86 293.17,-130.26 283.68,-134.96 288.68,-139.86"/>
<text text-anchor="middle" x="276" y="-152.8" font-family="Times,serif" font-size="14.00">c</text>
</g>
<!-- q2&#45;&gt;q4 -->
<g id="edge2" class="edge">
<title>q2&#45;&gt;q4</title>
<path fill="none" stroke="black" d="M283.89,-88.64C267.04,-77.82 245.22,-64.45 225,-54 209.09,-45.78 190.82,-37.85 175.57,-31.61"/>
<polygon fill="black" stroke="black" points="176.62,-28.26 166.04,-27.78 174.01,-34.76 176.62,-28.26"/>
<text text-anchor="middle" x="253.5" y="-57.8" font-family="Times,serif" font-size="14.00">a</text>
</g>
<!-- q2&#45;&gt;q4 -->
<g id="edge12" class="edge">
<title>q2&#45;&gt;q4</title>
<path fill="none" stroke="black" d="M297.84,-87.2C288.62,-75.92 275.96,-62.56 262,-54 236.62,-38.44 203.95,-29.48 179.26,-24.53"/>
<polygon fill="black" stroke="black" points="179.69,-21.04 169.21,-22.64 178.4,-27.92 179.69,-21.04"/>
<text text-anchor="middle" x="284" y="-57.8" font-family="Times,serif" font-size="14.00">b</text>
</g>
<!-- q2&#45;&gt;q2 -->
<g id="edge8" class="edge">
<title>q2&#45;&gt;q2</title>
<path fill="none" stroke="black" d="M381.27,-117.27C394.86,-116.34 404.54,-113.58 404.54,-109 404.54,-105.67 399.43,-103.31 391.42,-101.9"/>
<polygon fill="black" stroke="black" points="391.6,-98.4 381.27,-100.73 390.8,-105.36 391.6,-98.4"/>
<text text-anchor="middle" x="408.54" y="-105.3" font-family="Times,serif" font-size="14.00">c</text>
</g>
<!-- q3 -->
<g id="node4" class="node">
<title>q3</title>
<ellipse fill="none" stroke="black" cx="113" cy="-295" rx="34.39" ry="18"/>
<text text-anchor="middle" x="113" y="-291.3" font-family="Times,serif" font-size="14.00">{q3}</text>
</g>
<!-- q3&#45;&gt;q4 -->
<g id="edge9" class="edge">
<title>q3&#45;&gt;q4</title>
<path fill="none" stroke="black" d="M107.64,-277.13C99.68,-250.2 86.09,-195.74 90,-149 93.57,-106.33 85.85,-91.78 106,-54 108.93,-48.5 113.05,-43.38 117.49,-38.84"/>
<polygon fill="black" stroke="black" points="120.14,-41.16 125.09,-31.79 115.38,-36.03 120.14,-41.16"/>
<text text-anchor="middle" x="94" y="-152.8" font-family="Times,serif" font-size="14.00">c</text>
</g>
<!-- q3&#45;&gt;q4 -->
<g id="edge14" class="edge">
<title>q3&#45;&gt;q4</title>
<path fill="none" stroke="black" d="M114.88,-276.8C119.94,-230.4 133.9,-102.41 140.04,-46.14"/>
<polygon fill="black" stroke="black" points="143.52,-46.52 141.12,-36.2 136.56,-45.76 143.52,-46.52"/>
<text text-anchor="middle" x="132.5" y="-152.8" font-family="Times,serif" font-size="14.00">a</text>
</g>
<!-- q3&#45;&gt;q1 -->
<g id="edge10" class="edge">
<title>q3&#45;&gt;q1</title>
<path fill="none" stroke="black" d="M131,-279.3C146.87,-266.34 170.39,-247.14 189.54,-231.5"/>
<polygon fill="black" stroke="black" points="191.91,-234.09 197.44,-225.05 187.49,-228.66 191.91,-234.09"/>
<text text-anchor="middle" x="179" y="-247.8" font-family="Times,serif" font-size="14.00">b</text>
</g>
<!-- q0 -->
<g id="node5" class="node">
<title>q0</title>
<ellipse fill="none" stroke="blue" cx="44" cy="-382" rx="34.39" ry="18"/>
<text text-anchor="middle" x="44" y="-378.3" font-family="Times,serif" font-size="14.00">{q0}</text>
</g>
<!-- q0&#45;&gt;q4 -->
<g id="edge1" class="edge">
<title>q0&#45;&gt;q4</title>
<path fill="none" stroke="black" d="M30.08,-365.32C17.19,-349.14 0,-322.59 0,-296 0,-296 0,-296 0,-108 0,-80.54 8.69,-71.31 30,-54 51.67,-36.41 82.17,-27.63 106.03,-23.27"/>
<polygon fill="black" stroke="black" points="106.83,-26.68 116.13,-21.6 105.69,-19.77 106.83,-26.68"/>
<text text-anchor="middle" x="4" y="-200.3" font-family="Times,serif" font-size="14.00">c</text>
</g>
<!-- q0&#45;&gt;q4 -->
<g id="edge13" class="edge">
<title>q0&#45;&gt;q4</title>
<path fill="none" stroke="black" d="M44,-363.74C44,-346.57 44,-319.46 44,-296 44,-296 44,-296 44,-108 44,-71.45 81.77,-46.1 110.65,-32.05"/>
<polygon fill="black" stroke="black" points="112.42,-35.09 120.04,-27.73 109.49,-28.74 112.42,-35.09"/>
<text text-anchor="middle" x="49" y="-200.3" font-family="Times,serif" font-size="14.00">b</text>
</g>
<!-- q0&#45;&gt;q3 -->
<g id="edge5" class="edge">
<title>q0&#45;&gt;q3</title>
<path fill="none" stroke="black" d="M56.98,-365.01C67.29,-352.31 81.87,-334.34 93.58,-319.93"/>
<polygon fill="black" stroke="black" points="96.49,-321.89 100.08,-311.92 91.06,-317.47 96.49,-321.89"/>
<text text-anchor="middle" x="86.5" y="-334.8" font-family="Times,serif" font-size="14.00">a</text>
</g>
</g>
</svg>
