<?xml version="1.0" encoding="UTF-8" standalone="no"?>
<!DOCTYPE svg PUBLIC "-//W3C//DTD SVG 1.1//EN"
 "http://www.w3.org/Graphics/SVG/1.1/DTD/svg11.dtd">
<!-- Generated by graphviz version 2.43.0 (0)
 -->
<!-- Title: nfae Pages: 1 -->
<svg width="360pt" height="226pt"
 viewBox="0.00 0.00 360.38 226.00" xmlns="http://www.w3.org/2000/svg" xmlns:xlink="http://www.w3.org/1999/xlink">
<g id="graph0" class="graph" transform="scale(1 1) rotate(0) translate(4 222)">
<title>nfae</title>
<polygon fill="white" stroke="transparent" points="-4,4 -4,-222 356.38,-222 356.38,4 -4,4"/>
<!-- q1 -->
<g id="node1" class="node">
<title>q1</title>
<ellipse fill="none" stroke="black" cx="143.74" cy="-109" rx="139.97" ry="18"/>
<ellipse fill="none" stroke="black" cx="143.74" cy="-109" rx="143.98" ry="22"/>
<text text-anchor="middle" x="143.74" y="-105.3" font-family="Times,serif" font-size="14.00">{q1, q2, q3, q4, q5, q6, q7}</text>
</g>
<!-- q1&#45;&gt;q1 -->
<g id="edge6" class="edge">
<title>q1&#45;&gt;q1</title>
<path fill="none" stroke="black" d="M279.42,-116.36C295.21,-115 305.48,-112.55 305.48,-109 305.48,-106.28 299.46,-104.21 289.55,-102.77"/>
<polygon fill="black" stroke="black" points="289.75,-99.28 279.42,-101.64 288.97,-106.23 289.75,-99.28"/>
<text text-anchor="middle" x="310.48" y="-105.3" font-family="Times,serif" font-size="14.00">0</text>
</g>
<!-- q2 -->
<g id="node2" class="node">
<title>q2</title>
<ellipse fill="none" stroke="black" cx="176.74" cy="-18" rx="122.38" ry="18"/>
<text text-anchor="middle" x="176.74" y="-14.3" font-family="Times,serif" font-size="14.00">{q2, q3, q4, q5, q7, q8}</text>
</g>
<!-- q1&#45;&gt;q2 -->
<g id="edge3" class="edge">
<title>q1&#45;&gt;q2</title>
<path fill="none" stroke="black" d="M140.72,-86.8C140.11,-76.55 140.64,-64.28 144.74,-54 146.13,-50.51 148.05,-47.14 150.25,-43.98"/>
<polygon fill="black" stroke="black" points="153.05,-46.08 156.62,-36.1 147.61,-41.68 153.05,-46.08"/>
<text text-anchor="middle" x="149.74" y="-57.8" font-family="Times,serif" font-size="14.00">1</text>
</g>
<!-- q2&#45;&gt;q1 -->
<g id="edge5" class="edge">
<title>q2&#45;&gt;q1</title>
<path fill="none" stroke="black" d="M170.41,-36.07C166.09,-47.72 160.24,-63.49 155.12,-77.29"/>
<polygon fill="black" stroke="black" points="151.75,-76.32 151.56,-86.91 158.32,-78.75 151.75,-76.32"/>
<text text-anchor="middle" x="168.74" y="-57.8" font-family="Times,serif" font-size="14.00">0</text>
</g>
<!-- q2&#45;&gt;q2 -->
<g id="edge4" class="edge">
<title>q2&#45;&gt;q2</title>
<path fill="none" stroke="black" d="M288.93,-25.14C305.63,-24.03 316.93,-21.65 316.93,-18 316.93,-15.15 310.03,-13.07 299.05,-11.77"/>
<polygon fill="black" stroke="black" points="299.2,-8.27 288.93,-10.86 298.58,-15.24 299.2,-8.27"/>
<text text-anchor="middle" x="321.93" y="-14.3" font-family="Times,serif" font-size="14.00">1</text>
</g>
<!-- q0 -->
<g id="node3" class="node">
<title>q0</title>
<ellipse fill="none" stroke="blue" cx="247.74" cy="-200" rx="104.78" ry="18"/>
<text text-anchor="middle" x="247.74" y="-196.3" font-family="Times,serif" font-size="14.00">{q0, q2, q3, q5, q7}</text>
</g>
<!-- q0&#45;&gt;q1 -->
<g id="edge2" class="edge">
<title>q0&#45;&gt;q1</title>
<path fill="none" stroke="black" d="M228.18,-182.26C213.38,-169.6 192.75,-151.94 175.58,-137.25"/>
<polygon fill="black" stroke="black" points="177.84,-134.58 167.97,-130.74 173.29,-139.9 177.84,-134.58"/>
<text text-anchor="middle" x="209.74" y="-152.8" font-family="Times,serif" font-size="14.00">0</text>
</g>
<!-- q0&#45;&gt;q2 -->
<g id="edge1" class="edge">
<title>q0&#45;&gt;q2</title>
<path fill="none" stroke="black" d="M276.45,-182.5C293.97,-170.66 314.84,-152.95 324.74,-131 332.78,-113.17 335.29,-103.46 324.74,-87 308.9,-62.3 281.59,-46.45 254.7,-36.33"/>
<polygon fill="black" stroke="black" points="255.83,-33.02 245.23,-32.99 253.5,-39.62 255.83,-33.02"/>
<text text-anchor="middle" x="336.74" y="-105.3" font-family="Times,serif" font-size="14.00">1</text>
</g>
</g>
</svg>
