<?xml version="1.0" encoding="UTF-8" standalone="no"?>
<!DOCTYPE svg PUBLIC "-//W3C//DTD SVG 1.1//EN"
 "http://www.w3.org/Graphics/SVG/1.1/DTD/svg11.dtd">
<!-- Generated by graphviz version 2.43.0 (0)
 -->
<!-- Title: nfae Pages: 1 -->
<svg width="652pt" height="416pt"
 viewBox="0.00 0.00 651.85 416.00" xmlns="http://www.w3.org/2000/svg" xmlns:xlink="http://www.w3.org/1999/xlink">
<g id="graph0" class="graph" transform="scale(1 1) rotate(0) translate(4 412)">
<title>nfae</title>
<polygon fill="white" stroke="transparent" points="-4,4 -4,-412 647.85,-412 647.85,4 -4,4"/>
<!-- q6 -->
<g id="node1" class="node">
<title>q6</title>
<ellipse fill="none" stroke="black" cx="159.85" cy="-299" rx="27" ry="18"/>
<ellipse fill="none" stroke="black" cx="159.85" cy="-299" rx="31" ry="22"/>
<text text-anchor="middle" x="159.85" y="-295.3" font-family="Times,serif" font-size="14.00">q6</text>
</g>
<!-- q10 -->
<g id="node2" class="node">
<title>q10</title>
<ellipse fill="none" stroke="black" cx="49.85" cy="-208" rx="28.7" ry="18"/>
<text text-anchor="middle" x="49.85" y="-204.3" font-family="Times,serif" font-size="14.00">q10</text>
</g>
<!-- q6&#45;&gt;q10 -->
<g id="edge32" class="edge">
<title>q6&#45;&gt;q10</title>
<path fill="none" stroke="black" d="M139.93,-281.88C121.62,-267.07 94.4,-245.05 74.68,-229.09"/>
<polygon fill="black" stroke="black" points="76.71,-226.23 66.74,-222.66 72.31,-231.68 76.71,-226.23"/>
<text text-anchor="middle" x="115.85" y="-247.8" font-family="Times,serif" font-size="14.00">c</text>
</g>
<!-- q3 -->
<g id="node7" class="node">
<title>q3</title>
<ellipse fill="none" stroke="black" cx="91.85" cy="-117" rx="27" ry="18"/>
<ellipse fill="none" stroke="black" cx="91.85" cy="-117" rx="31" ry="22"/>
<text text-anchor="middle" x="91.85" y="-113.3" font-family="Times,serif" font-size="14.00">q3</text>
</g>
<!-- q6&#45;&gt;q3 -->
<g id="edge27" class="edge">
<title>q6&#45;&gt;q3</title>
<path fill="none" stroke="black" d="M152.05,-277.35C140.06,-245.61 117.04,-184.68 103.2,-148.05"/>
<polygon fill="black" stroke="black" points="106.36,-146.53 99.56,-138.41 99.82,-149 106.36,-146.53"/>
<text text-anchor="middle" x="137.85" y="-204.3" font-family="Times,serif" font-size="14.00">b</text>
</g>
<!-- q9 -->
<g id="node8" class="node">
<title>q9</title>
<ellipse fill="none" stroke="black" cx="67.85" cy="-22" rx="27" ry="18"/>
<text text-anchor="middle" x="67.85" y="-18.3" font-family="Times,serif" font-size="14.00">q9</text>
</g>
<!-- q6&#45;&gt;q9 -->
<g id="edge23" class="edge">
<title>q6&#45;&gt;q9</title>
<path fill="none" stroke="black" d="M165.55,-277.09C174.82,-238.73 189.33,-155.51 159.85,-95 147.18,-69 120.07,-49.62 98.54,-37.56"/>
<polygon fill="black" stroke="black" points="100.19,-34.47 89.72,-32.84 96.88,-40.64 100.19,-34.47"/>
<text text-anchor="middle" x="182.35" y="-160.8" font-family="Times,serif" font-size="14.00">a</text>
</g>
<!-- q10&#45;&gt;q10 -->
<g id="edge15" class="edge">
<title>q10&#45;&gt;q10</title>
<path fill="none" stroke="black" d="M75.72,-215.78C86.89,-216.42 96.44,-213.82 96.44,-208 96.44,-204.09 92.13,-201.63 85.91,-200.64"/>
<polygon fill="black" stroke="black" points="85.86,-197.13 75.72,-200.22 85.57,-204.12 85.86,-197.13"/>
<text text-anchor="middle" x="100.44" y="-204.3" font-family="Times,serif" font-size="14.00">c</text>
</g>
<!-- q10&#45;&gt;q3 -->
<g id="edge35" class="edge">
<title>q10&#45;&gt;q3</title>
<path fill="none" stroke="black" d="M55.01,-189.98C58.22,-180.14 62.72,-167.64 67.85,-157 69.58,-153.4 71.56,-149.7 73.62,-146.09"/>
<polygon fill="black" stroke="black" points="76.7,-147.77 78.82,-137.4 70.69,-144.18 76.7,-147.77"/>
<text text-anchor="middle" x="72.85" y="-160.8" font-family="Times,serif" font-size="14.00">b</text>
</g>
<!-- q10&#45;&gt;q9 -->
<g id="edge3" class="edge">
<title>q10&#45;&gt;q9</title>
<path fill="none" stroke="black" d="M36.1,-191.88C31,-185.91 25.37,-178.85 20.85,-172 1.53,-142.76 -4.41,-129.06 3.85,-95 7.73,-78.97 10.51,-74.86 20.85,-62 26.67,-54.75 34.02,-47.89 41.16,-42.01"/>
<polygon fill="black" stroke="black" points="43.65,-44.51 49.36,-35.58 39.33,-39 43.65,-44.51"/>
<text text-anchor="middle" x="8.35" y="-113.3" font-family="Times,serif" font-size="14.00">a</text>
</g>
<!-- q11 -->
<g id="node3" class="node">
<title>q11</title>
<ellipse fill="none" stroke="black" cx="503.85" cy="-208" rx="28.7" ry="18"/>
<text text-anchor="middle" x="503.85" y="-204.3" font-family="Times,serif" font-size="14.00">q11</text>
</g>
<!-- q11&#45;&gt;q11 -->
<g id="edge14" class="edge">
<title>q11&#45;&gt;q11</title>
<path fill="none" stroke="black" d="M529.72,-215.78C540.89,-216.42 550.44,-213.82 550.44,-208 550.44,-204.09 546.13,-201.63 539.91,-200.64"/>
<polygon fill="black" stroke="black" points="539.86,-197.13 529.72,-200.22 539.57,-204.12 539.86,-197.13"/>
<text text-anchor="middle" x="554.94" y="-204.3" font-family="Times,serif" font-size="14.00">a</text>
</g>
<!-- q12 -->
<g id="node5" class="node">
<title>q12</title>
<ellipse fill="none" stroke="black" cx="559.85" cy="-117" rx="28.7" ry="18"/>
<text text-anchor="middle" x="559.85" y="-113.3" font-family="Times,serif" font-size="14.00">q12</text>
</g>
<!-- q11&#45;&gt;q12 -->
<g id="edge13" class="edge">
<title>q11&#45;&gt;q12</title>
<path fill="none" stroke="black" d="M513.86,-191.09C522.33,-177.63 534.6,-158.12 544.34,-142.64"/>
<polygon fill="black" stroke="black" points="547.37,-144.4 549.73,-134.07 541.44,-140.67 547.37,-144.4"/>
<text text-anchor="middle" x="540.85" y="-160.8" font-family="Times,serif" font-size="14.00">b</text>
</g>
<!-- q4 -->
<g id="node10" class="node">
<title>q4</title>
<ellipse fill="none" stroke="black" cx="536.85" cy="-22" rx="27" ry="18"/>
<ellipse fill="none" stroke="black" cx="536.85" cy="-22" rx="31" ry="22"/>
<text text-anchor="middle" x="536.85" y="-18.3" font-family="Times,serif" font-size="14.00">q4</text>
</g>
<!-- q11&#45;&gt;q4 -->
<g id="edge36" class="edge">
<title>q11&#45;&gt;q4</title>
<path fill="none" stroke="black" d="M498.97,-189.98C493.39,-167.75 486.08,-127.79 494.85,-95 499.13,-78.98 507.99,-62.88 516.47,-49.98"/>
<polygon fill="black" stroke="black" points="519.45,-51.83 522.22,-41.6 513.68,-47.86 519.45,-51.83"/>
<text text-anchor="middle" x="498.85" y="-113.3" font-family="Times,serif" font-size="14.00">c</text>
</g>
<!-- q0 -->
<g id="node4" class="node">
<title>q0</title>
<ellipse fill="none" stroke="blue" cx="367.85" cy="-390" rx="27" ry="18"/>
<text text-anchor="middle" x="367.85" y="-386.3" font-family="Times,serif" font-size="14.00">q0</text>
</g>
<!-- q0&#45;&gt;q6 -->
<g id="edge26" class="edge">
<title>q0&#45;&gt;q6</title>
<path fill="none" stroke="black" d="M345.59,-379.48C309.54,-364.05 238.09,-333.48 195.08,-315.07"/>
<polygon fill="black" stroke="black" points="196.41,-311.84 185.83,-311.12 193.65,-318.27 196.41,-311.84"/>
<text text-anchor="middle" x="287.85" y="-342.8" font-family="Times,serif" font-size="14.00">b</text>
</g>
<!-- q5 -->
<g id="node6" class="node">
<title>q5</title>
<ellipse fill="none" stroke="black" cx="367.85" cy="-299" rx="27" ry="18"/>
<ellipse fill="none" stroke="black" cx="367.85" cy="-299" rx="31" ry="22"/>
<text text-anchor="middle" x="367.85" y="-295.3" font-family="Times,serif" font-size="14.00">q5</text>
</g>
<!-- q0&#45;&gt;q5 -->
<g id="edge24" class="edge">
<title>q0&#45;&gt;q5</title>
<path fill="none" stroke="black" d="M367.85,-371.84C367.85,-360.44 367.85,-345.13 367.85,-331.58"/>
<polygon fill="black" stroke="black" points="371.35,-331.19 367.85,-321.19 364.35,-331.19 371.35,-331.19"/>
<text text-anchor="middle" x="372.35" y="-342.8" font-family="Times,serif" font-size="14.00">a</text>
</g>
<!-- q1 -->
<g id="node9" class="node">
<title>q1</title>
<ellipse fill="none" stroke="black" cx="572.85" cy="-299" rx="27" ry="18"/>
<ellipse fill="none" stroke="black" cx="572.85" cy="-299" rx="31" ry="22"/>
<text text-anchor="middle" x="572.85" y="-295.3" font-family="Times,serif" font-size="14.00">q1</text>
</g>
<!-- q0&#45;&gt;q1 -->
<g id="edge2" class="edge">
<title>q0&#45;&gt;q1</title>
<path fill="none" stroke="black" d="M389.78,-379.48C425.14,-364.12 495.06,-333.77 537.51,-315.34"/>
<polygon fill="black" stroke="black" points="539.12,-318.46 546.9,-311.26 536.34,-312.04 539.12,-318.46"/>
<text text-anchor="middle" x="486.85" y="-342.8" font-family="Times,serif" font-size="14.00">c</text>
</g>
<!-- q12&#45;&gt;q11 -->
<g id="edge37" class="edge">
<title>q12&#45;&gt;q11</title>
<path fill="none" stroke="black" d="M558.97,-135.17C557.72,-146.38 554.77,-160.93 547.85,-172 543.86,-178.37 538.29,-184.08 532.46,-188.94"/>
<polygon fill="black" stroke="black" points="530.29,-186.19 524.45,-195.03 534.53,-191.76 530.29,-186.19"/>
<text text-anchor="middle" x="559.35" y="-160.8" font-family="Times,serif" font-size="14.00">a</text>
</g>
<!-- q12&#45;&gt;q12 -->
<g id="edge31" class="edge">
<title>q12&#45;&gt;q12</title>
<path fill="none" stroke="black" d="M585.25,-125.49C596.61,-126.3 606.44,-123.47 606.44,-117 606.44,-112.65 602.01,-109.95 595.65,-108.89"/>
<polygon fill="black" stroke="black" points="595.37,-105.38 585.25,-108.51 595.12,-112.37 595.37,-105.38"/>
<text text-anchor="middle" x="611.44" y="-113.3" font-family="Times,serif" font-size="14.00">b</text>
</g>
<!-- q12&#45;&gt;q4 -->
<g id="edge7" class="edge">
<title>q12&#45;&gt;q4</title>
<path fill="none" stroke="black" d="M556.31,-98.92C554.04,-88.27 550.94,-74.29 547.85,-62 547.14,-59.19 546.37,-56.27 545.59,-53.35"/>
<polygon fill="black" stroke="black" points="548.92,-52.29 542.89,-43.59 542.18,-54.16 548.92,-52.29"/>
<text text-anchor="middle" x="555.85" y="-65.8" font-family="Times,serif" font-size="14.00">c</text>
</g>
<!-- q7 -->
<g id="node11" class="node">
<title>q7</title>
<ellipse fill="none" stroke="black" cx="276.85" cy="-208" rx="27" ry="18"/>
<text text-anchor="middle" x="276.85" y="-204.3" font-family="Times,serif" font-size="14.00">q7</text>
</g>
<!-- q5&#45;&gt;q7 -->
<g id="edge25" class="edge">
<title>q5&#45;&gt;q7</title>
<path fill="none" stroke="black" d="M350.3,-280.84C335.65,-266.51 314.7,-246.02 298.91,-230.58"/>
<polygon fill="black" stroke="black" points="301.23,-227.95 291.63,-223.46 296.33,-232.95 301.23,-227.95"/>
<text text-anchor="middle" x="332.85" y="-247.8" font-family="Times,serif" font-size="14.00">b</text>
</g>
<!-- q2 -->
<g id="node12" class="node">
<title>q2</title>
<ellipse fill="none" stroke="black" cx="327.85" cy="-117" rx="27" ry="18"/>
<ellipse fill="none" stroke="black" cx="327.85" cy="-117" rx="31" ry="22"/>
<text text-anchor="middle" x="327.85" y="-113.3" font-family="Times,serif" font-size="14.00">q2</text>
</g>
<!-- q5&#45;&gt;q2 -->
<g id="edge12" class="edge">
<title>q5&#45;&gt;q2</title>
<path fill="none" stroke="black" d="M363.18,-277C356.16,-245.43 342.86,-185.56 334.73,-148.97"/>
<polygon fill="black" stroke="black" points="338.07,-147.87 332.48,-138.87 331.24,-149.39 338.07,-147.87"/>
<text text-anchor="middle" x="356.35" y="-204.3" font-family="Times,serif" font-size="14.00">a</text>
</g>
<!-- q8 -->
<g id="node13" class="node">
<title>q8</title>
<ellipse fill="none" stroke="black" cx="301.85" cy="-22" rx="27" ry="18"/>
<text text-anchor="middle" x="301.85" y="-18.3" font-family="Times,serif" font-size="14.00">q8</text>
</g>
<!-- q5&#45;&gt;q8 -->
<g id="edge11" class="edge">
<title>q5&#45;&gt;q8</title>
<path fill="none" stroke="black" d="M377.57,-278.07C394.53,-240.27 424.98,-156.45 394.85,-95 382.02,-68.85 354.62,-49.49 332.87,-37.47"/>
<polygon fill="black" stroke="black" points="334.43,-34.34 323.95,-32.77 331.16,-40.53 334.43,-34.34"/>
<text text-anchor="middle" x="411.85" y="-160.8" font-family="Times,serif" font-size="14.00">c</text>
</g>
<!-- q3&#45;&gt;q10 -->
<g id="edge33" class="edge">
<title>q3&#45;&gt;q10</title>
<path fill="none" stroke="black" d="M89.07,-139.03C87.15,-149.35 83.98,-161.74 78.85,-172 76.67,-176.36 73.85,-180.65 70.83,-184.65"/>
<polygon fill="black" stroke="black" points="68.12,-182.44 64.49,-192.4 73.53,-186.88 68.12,-182.44"/>
<text text-anchor="middle" x="88.85" y="-160.8" font-family="Times,serif" font-size="14.00">c</text>
</g>
<!-- q3&#45;&gt;q3 -->
<g id="edge18" class="edge">
<title>q3&#45;&gt;q3</title>
<path fill="none" stroke="black" d="M120.53,-125.59C131.63,-125.97 140.85,-123.11 140.85,-117 140.85,-112.9 136.68,-110.26 130.59,-109.08"/>
<polygon fill="black" stroke="black" points="130.75,-105.58 120.53,-108.41 130.28,-112.57 130.75,-105.58"/>
<text text-anchor="middle" x="145.85" y="-113.3" font-family="Times,serif" font-size="14.00">b</text>
</g>
<!-- q3&#45;&gt;q9 -->
<g id="edge20" class="edge">
<title>q3&#45;&gt;q9</title>
<path fill="none" stroke="black" d="M87.03,-95.18C84.66,-85.13 81.7,-72.92 78.85,-62 77.82,-58.05 76.69,-53.9 75.56,-49.82"/>
<polygon fill="black" stroke="black" points="78.89,-48.73 72.81,-40.05 72.15,-50.62 78.89,-48.73"/>
<text text-anchor="middle" x="87.35" y="-65.8" font-family="Times,serif" font-size="14.00">a</text>
</g>
<!-- q9&#45;&gt;q10 -->
<g id="edge17" class="edge">
<title>q9&#45;&gt;q10</title>
<path fill="none" stroke="black" d="M60.65,-39.49C54.81,-53.84 47.03,-75.36 43.85,-95 39.19,-123.71 42.01,-157.04 45.16,-179.83"/>
<polygon fill="black" stroke="black" points="41.72,-180.43 46.66,-189.8 48.64,-179.39 41.72,-180.43"/>
<text text-anchor="middle" x="47.85" y="-113.3" font-family="Times,serif" font-size="14.00">c</text>
</g>
<!-- q9&#45;&gt;q3 -->
<g id="edge16" class="edge">
<title>q9&#45;&gt;q3</title>
<path fill="none" stroke="black" d="M65.95,-40.35C65.32,-51.11 65.48,-65.09 68.85,-77 69.89,-80.7 71.38,-84.4 73.09,-87.98"/>
<polygon fill="black" stroke="black" points="70.18,-89.96 78.05,-97.06 76.33,-86.6 70.18,-89.96"/>
<text text-anchor="middle" x="73.85" y="-65.8" font-family="Times,serif" font-size="14.00">b</text>
</g>
<!-- q9&#45;&gt;q9 -->
<g id="edge5" class="edge">
<title>q9&#45;&gt;q9</title>
<path fill="none" stroke="black" d="M91.92,-30.45C103.09,-31.38 112.85,-28.56 112.85,-22 112.85,-17.59 108.44,-14.88 102.16,-13.85"/>
<polygon fill="black" stroke="black" points="102.02,-10.34 91.92,-13.55 101.81,-17.34 102.02,-10.34"/>
<text text-anchor="middle" x="117.35" y="-18.3" font-family="Times,serif" font-size="14.00">a</text>
</g>
<!-- q1&#45;&gt;q11 -->
<g id="edge4" class="edge">
<title>q1&#45;&gt;q11</title>
<path fill="none" stroke="black" d="M558.21,-279.13C547.7,-265.56 533.45,-247.18 522.17,-232.64"/>
<polygon fill="black" stroke="black" points="524.82,-230.34 515.93,-224.59 519.29,-234.63 524.82,-230.34"/>
<text text-anchor="middle" x="547.35" y="-247.8" font-family="Times,serif" font-size="14.00">a</text>
</g>
<!-- q1&#45;&gt;q12 -->
<g id="edge34" class="edge">
<title>q1&#45;&gt;q12</title>
<path fill="none" stroke="black" d="M573.19,-276.89C573.39,-249.25 572.9,-199.32 567.85,-157 567.38,-153.14 566.74,-149.08 566.01,-145.11"/>
<polygon fill="black" stroke="black" points="569.38,-144.1 563.97,-134.99 562.52,-145.48 569.38,-144.1"/>
<text text-anchor="middle" x="577.85" y="-204.3" font-family="Times,serif" font-size="14.00">b</text>
</g>
<!-- q1&#45;&gt;q4 -->
<g id="edge38" class="edge">
<title>q1&#45;&gt;q4</title>
<path fill="none" stroke="black" d="M586.21,-278.98C610.39,-242.04 656.2,-158.61 625.85,-95 614.49,-71.2 591,-52.73 571,-40.46"/>
<polygon fill="black" stroke="black" points="572.51,-37.29 562.11,-35.26 568.98,-43.33 572.51,-37.29"/>
<text text-anchor="middle" x="639.85" y="-160.8" font-family="Times,serif" font-size="14.00">c</text>
</g>
<!-- q4&#45;&gt;q11 -->
<g id="edge6" class="edge">
<title>q4&#45;&gt;q11</title>
<path fill="none" stroke="black" d="M528.56,-43.43C523.17,-57.65 516.48,-77.18 512.85,-95 507.03,-123.55 504.94,-156.9 504.2,-179.74"/>
<polygon fill="black" stroke="black" points="500.7,-179.66 503.95,-189.74 507.7,-179.84 500.7,-179.66"/>
<text text-anchor="middle" x="517.35" y="-113.3" font-family="Times,serif" font-size="14.00">a</text>
</g>
<!-- q4&#45;&gt;q12 -->
<g id="edge8" class="edge">
<title>q4&#45;&gt;q12</title>
<path fill="none" stroke="black" d="M534.29,-44.11C533.71,-54.23 533.96,-66.42 536.85,-77 538.23,-82.08 540.47,-87.18 543.02,-91.93"/>
<polygon fill="black" stroke="black" points="540.03,-93.75 548.16,-100.55 546.04,-90.17 540.03,-93.75"/>
<text text-anchor="middle" x="541.85" y="-65.8" font-family="Times,serif" font-size="14.00">b</text>
</g>
<!-- q4&#45;&gt;q4 -->
<g id="edge29" class="edge">
<title>q4&#45;&gt;q4</title>
<path fill="none" stroke="black" d="M565.53,-30.59C576.63,-30.97 585.85,-28.11 585.85,-22 585.85,-17.9 581.68,-15.26 575.59,-14.08"/>
<polygon fill="black" stroke="black" points="575.75,-10.58 565.53,-13.41 575.28,-17.57 575.75,-10.58"/>
<text text-anchor="middle" x="589.85" y="-18.3" font-family="Times,serif" font-size="14.00">c</text>
</g>
<!-- q7&#45;&gt;q7 -->
<g id="edge9" class="edge">
<title>q7&#45;&gt;q7</title>
<path fill="none" stroke="black" d="M301.38,-215.75C312.35,-216.49 321.85,-213.91 321.85,-208 321.85,-204.03 317.56,-201.56 311.42,-200.59"/>
<polygon fill="black" stroke="black" points="311.49,-197.09 301.38,-200.25 311.25,-204.09 311.49,-197.09"/>
<text text-anchor="middle" x="326.85" y="-204.3" font-family="Times,serif" font-size="14.00">b</text>
</g>
<!-- q7&#45;&gt;q2 -->
<g id="edge30" class="edge">
<title>q7&#45;&gt;q2</title>
<path fill="none" stroke="black" d="M284.91,-190.59C289.87,-180.73 296.47,-168.01 302.85,-157 304.98,-153.32 307.29,-149.5 309.63,-145.75"/>
<polygon fill="black" stroke="black" points="312.63,-147.55 315.03,-137.23 306.72,-143.8 312.63,-147.55"/>
<text text-anchor="middle" x="307.35" y="-160.8" font-family="Times,serif" font-size="14.00">a</text>
</g>
<!-- q7&#45;&gt;q8 -->
<g id="edge39" class="edge">
<title>q7&#45;&gt;q8</title>
<path fill="none" stroke="black" d="M271.11,-190.12C264.43,-168.03 255.22,-128.23 262.85,-95 266.8,-77.78 276.11,-60.3 284.64,-46.88"/>
<polygon fill="black" stroke="black" points="287.73,-48.56 290.35,-38.29 281.9,-44.68 287.73,-48.56"/>
<text text-anchor="middle" x="266.85" y="-113.3" font-family="Times,serif" font-size="14.00">c</text>
</g>
<!-- q2&#45;&gt;q7 -->
<g id="edge10" class="edge">
<title>q2&#45;&gt;q7</title>
<path fill="none" stroke="black" d="M324.18,-138.99C321.74,-149.42 317.85,-161.92 311.85,-172 308.88,-176.98 305.05,-181.77 301.01,-186.12"/>
<polygon fill="black" stroke="black" points="298.28,-183.9 293.66,-193.43 303.22,-188.86 298.28,-183.9"/>
<text text-anchor="middle" x="323.85" y="-160.8" font-family="Times,serif" font-size="14.00">b</text>
</g>
<!-- q2&#45;&gt;q2 -->
<g id="edge21" class="edge">
<title>q2&#45;&gt;q2</title>
<path fill="none" stroke="black" d="M356.53,-125.59C367.63,-125.97 376.85,-123.11 376.85,-117 376.85,-112.9 372.68,-110.26 366.59,-109.08"/>
<polygon fill="black" stroke="black" points="366.75,-105.58 356.53,-108.41 366.28,-112.57 366.75,-105.58"/>
<text text-anchor="middle" x="381.35" y="-113.3" font-family="Times,serif" font-size="14.00">a</text>
</g>
<!-- q2&#45;&gt;q8 -->
<g id="edge19" class="edge">
<title>q2&#45;&gt;q8</title>
<path fill="none" stroke="black" d="M322.08,-95.36C318.32,-81.93 313.38,-64.27 309.33,-49.76"/>
<polygon fill="black" stroke="black" points="312.62,-48.54 306.56,-39.86 305.88,-50.43 312.62,-48.54"/>
<text text-anchor="middle" x="320.85" y="-65.8" font-family="Times,serif" font-size="14.00">c</text>
</g>
<!-- q8&#45;&gt;q7 -->
<g id="edge28" class="edge">
<title>q8&#45;&gt;q7</title>
<path fill="none" stroke="black" d="M294.7,-39.5C288.88,-53.85 281.12,-75.38 277.85,-95 273.07,-123.64 273.52,-156.99 274.73,-179.79"/>
<polygon fill="black" stroke="black" points="271.24,-180.01 275.35,-189.78 278.23,-179.58 271.24,-180.01"/>
<text text-anchor="middle" x="282.85" y="-113.3" font-family="Times,serif" font-size="14.00">b</text>
</g>
<!-- q8&#45;&gt;q2 -->
<g id="edge1" class="edge">
<title>q8&#45;&gt;q2</title>
<path fill="none" stroke="black" d="M299.8,-40.4C299.1,-51.17 299.26,-65.15 302.85,-77 304.08,-81.07 305.87,-85.12 307.93,-88.99"/>
<polygon fill="black" stroke="black" points="304.96,-90.84 313.12,-97.6 310.96,-87.23 304.96,-90.84"/>
<text text-anchor="middle" x="307.35" y="-65.8" font-family="Times,serif" font-size="14.00">a</text>
</g>
<!-- q8&#45;&gt;q8 -->
<g id="edge22" class="edge">
<title>q8&#45;&gt;q8</title>
<path fill="none" stroke="black" d="M325.92,-30.45C337.09,-31.38 346.85,-28.56 346.85,-22 346.85,-17.59 342.44,-14.88 336.16,-13.85"/>
<polygon fill="black" stroke="black" points="336.02,-10.34 325.92,-13.55 335.81,-17.34 336.02,-10.34"/>
<text text-anchor="middle" x="350.85" y="-18.3" font-family="Times,serif" font-size="14.00">c</text>
</g>
</g>
</svg>
