<?xml version="1.0" encoding="UTF-8" standalone="no"?>
<!DOCTYPE svg PUBLIC "-//W3C//DTD SVG 1.1//EN"
 "http://www.w3.org/Graphics/SVG/1.1/DTD/svg11.dtd">
<!-- Generated by graphviz version 2.43.0 (0)
 -->
<!-- Title: nfae Pages: 1 -->
<svg width="343pt" height="487pt"
 viewBox="0.00 0.00 343.00 487.00" xmlns="http://www.w3.org/2000/svg" xmlns:xlink="http://www.w3.org/1999/xlink">
<g id="graph0" class="graph" transform="scale(1 1) rotate(0) translate(4 483)">
<title>nfae</title>
<polygon fill="white" stroke="transparent" points="-4,4 -4,-483 339,-483 339,4 -4,4"/>
<!-- q0 -->
<g id="node1" class="node">
<title>q0</title>
<ellipse fill="none" stroke="blue" cx="57" cy="-461" rx="27" ry="18"/>
<text text-anchor="middle" x="57" y="-457.3" font-family="Times,serif" font-size="14.00">q0</text>
</g>
<!-- q2 -->
<g id="node5" class="node">
<title>q2</title>
<ellipse fill="none" stroke="black" cx="172" cy="-374" rx="27" ry="18"/>
<text text-anchor="middle" x="172" y="-370.3" font-family="Times,serif" font-size="14.00">q2</text>
</g>
<!-- q0&#45;&gt;q2 -->
<g id="edge14" class="edge">
<title>q0&#45;&gt;q2</title>
<path fill="none" stroke="black" d="M74.47,-447.09C93.55,-432.99 124.31,-410.25 146.18,-394.09"/>
<polygon fill="black" stroke="black" points="148.41,-396.79 154.37,-388.03 144.25,-391.16 148.41,-396.79"/>
<text text-anchor="middle" x="126.5" y="-413.8" font-family="Times,serif" font-size="14.00">a</text>
</g>
<!-- q5 -->
<g id="node6" class="node">
<title>q5</title>
<ellipse fill="none" stroke="black" cx="165" cy="-18" rx="27" ry="18"/>
<text text-anchor="middle" x="165" y="-14.3" font-family="Times,serif" font-size="14.00">q5</text>
</g>
<!-- q0&#45;&gt;q5 -->
<g id="edge5" class="edge">
<title>q0&#45;&gt;q5</title>
<path fill="none" stroke="black" d="M40.51,-446.53C23.68,-431.15 0,-404.32 0,-375 0,-375 0,-375 0,-108 0,-81.74 3.88,-70.88 24,-54 53.17,-29.53 96.96,-21.75 127.99,-19.48"/>
<polygon fill="black" stroke="black" points="128.2,-22.98 137.98,-18.91 127.8,-15.99 128.2,-22.98"/>
<text text-anchor="middle" x="4" y="-239.8" font-family="Times,serif" font-size="14.00">c</text>
</g>
<!-- q0&#45;&gt;q5 -->
<g id="edge19" class="edge">
<title>q0&#45;&gt;q5</title>
<path fill="none" stroke="black" d="M50.99,-443.31C45.42,-426.35 38,-399.19 38,-375 38,-375 38,-375 38,-108 38,-81.74 42.61,-71.71 62,-54 80.3,-37.29 106.9,-28.51 128.49,-23.93"/>
<polygon fill="black" stroke="black" points="129.14,-27.37 138.31,-22.05 127.83,-20.49 129.14,-27.37"/>
<text text-anchor="middle" x="43" y="-239.8" font-family="Times,serif" font-size="14.00">b</text>
</g>
<!-- q0&#45;&gt;q5 -->
<g id="edge21" class="edge">
<title>q0&#45;&gt;q5</title>
<path fill="none" stroke="black" d="M63.01,-443.31C68.58,-426.35 76,-399.19 76,-375 76,-375 76,-375 76,-108 76,-74.33 108.24,-48.95 133.91,-34.08"/>
<polygon fill="black" stroke="black" points="135.93,-36.97 143,-29.08 132.55,-30.83 135.93,-36.97"/>
<text text-anchor="middle" x="81" y="-239.8" font-family="Times,serif" font-size="14.00">d</text>
</g>
<!-- q3 -->
<g id="node2" class="node">
<title>q3</title>
<ellipse fill="none" stroke="black" cx="236" cy="-287" rx="27" ry="18"/>
<text text-anchor="middle" x="236" y="-283.3" font-family="Times,serif" font-size="14.00">q3</text>
</g>
<!-- q3&#45;&gt;q3 -->
<g id="edge17" class="edge">
<title>q3&#45;&gt;q3</title>
<path fill="none" stroke="black" d="M260.53,-294.75C271.51,-295.49 281,-292.91 281,-287 281,-283.03 276.72,-280.56 270.57,-279.59"/>
<polygon fill="black" stroke="black" points="270.65,-276.09 260.53,-279.25 270.41,-283.09 270.65,-276.09"/>
<text text-anchor="middle" x="286" y="-283.3" font-family="Times,serif" font-size="14.00">b</text>
</g>
<!-- q1 -->
<g id="node3" class="node">
<title>q1</title>
<ellipse fill="none" stroke="black" cx="244" cy="-109" rx="27" ry="18"/>
<ellipse fill="none" stroke="black" cx="244" cy="-109" rx="31" ry="22"/>
<text text-anchor="middle" x="244" y="-105.3" font-family="Times,serif" font-size="14.00">q1</text>
</g>
<!-- q3&#45;&gt;q1 -->
<g id="edge12" class="edge">
<title>q3&#45;&gt;q1</title>
<path fill="none" stroke="black" d="M236.78,-268.8C238.12,-239.28 240.88,-178.55 242.58,-141.34"/>
<polygon fill="black" stroke="black" points="246.09,-141.21 243.04,-131.06 239.09,-140.89 246.09,-141.21"/>
<text text-anchor="middle" x="245" y="-196.3" font-family="Times,serif" font-size="14.00">d</text>
</g>
<!-- q4 -->
<g id="node4" class="node">
<title>q4</title>
<ellipse fill="none" stroke="black" cx="176" cy="-200" rx="27" ry="18"/>
<text text-anchor="middle" x="176" y="-196.3" font-family="Times,serif" font-size="14.00">q4</text>
</g>
<!-- q3&#45;&gt;q4 -->
<g id="edge8" class="edge">
<title>q3&#45;&gt;q4</title>
<path fill="none" stroke="black" d="M222.83,-271.03C217.7,-264.96 211.88,-257.79 207,-251 201.28,-243.05 195.5,-234.04 190.5,-225.88"/>
<polygon fill="black" stroke="black" points="193.39,-223.89 185.23,-217.12 187.39,-227.5 193.39,-223.89"/>
<text text-anchor="middle" x="211" y="-239.8" font-family="Times,serif" font-size="14.00">c</text>
</g>
<!-- q3&#45;&gt;q5 -->
<g id="edge2" class="edge">
<title>q3&#45;&gt;q5</title>
<path fill="none" stroke="black" d="M245.45,-270.13C264.4,-236.24 303.62,-154.39 284,-87 279.14,-70.31 276.59,-64.84 263,-54 245.08,-39.7 220.85,-30.98 200.97,-25.82"/>
<polygon fill="black" stroke="black" points="201.56,-22.36 191.02,-23.43 199.93,-29.17 201.56,-22.36"/>
<text text-anchor="middle" x="291.5" y="-152.8" font-family="Times,serif" font-size="14.00">a</text>
</g>
<!-- q1&#45;&gt;q5 -->
<g id="edge10" class="edge">
<title>q1&#45;&gt;q5</title>
<path fill="none" stroke="black" d="M218.31,-96.49C206.17,-89.94 192.33,-80.69 183,-69 177.66,-62.31 173.82,-53.9 171.1,-45.89"/>
<polygon fill="black" stroke="black" points="174.41,-44.73 168.23,-36.13 167.7,-46.71 174.41,-44.73"/>
<text text-anchor="middle" x="187.5" y="-57.8" font-family="Times,serif" font-size="14.00">a</text>
</g>
<!-- q1&#45;&gt;q5 -->
<g id="edge15" class="edge">
<title>q1&#45;&gt;q5</title>
<path fill="none" stroke="black" d="M228.01,-89.99C215.69,-76.1 198.56,-56.81 185.27,-41.84"/>
<polygon fill="black" stroke="black" points="187.6,-39.18 178.34,-34.03 182.36,-43.83 187.6,-39.18"/>
<text text-anchor="middle" x="214" y="-57.8" font-family="Times,serif" font-size="14.00">b</text>
</g>
<!-- q1&#45;&gt;q5 -->
<g id="edge16" class="edge">
<title>q1&#45;&gt;q5</title>
<path fill="none" stroke="black" d="M239.33,-87.09C236.12,-76.3 230.96,-63.47 223,-54 215.83,-45.47 206.02,-38.47 196.51,-33.02"/>
<polygon fill="black" stroke="black" points="198.06,-29.88 187.59,-28.28 194.78,-36.06 198.06,-29.88"/>
<text text-anchor="middle" x="236" y="-57.8" font-family="Times,serif" font-size="14.00">c</text>
</g>
<!-- q1&#45;&gt;q5 -->
<g id="edge20" class="edge">
<title>q1&#45;&gt;q5</title>
<path fill="none" stroke="black" d="M249.09,-87.25C250.53,-76.51 250.29,-63.67 244,-54 234.38,-39.21 216.93,-30.63 200.87,-25.66"/>
<polygon fill="black" stroke="black" points="201.7,-22.26 191.13,-23.02 199.87,-29.02 201.7,-22.26"/>
<text text-anchor="middle" x="254" y="-57.8" font-family="Times,serif" font-size="14.00">d</text>
</g>
<!-- q4&#45;&gt;q3 -->
<g id="edge13" class="edge">
<title>q4&#45;&gt;q3</title>
<path fill="none" stroke="black" d="M193,-214.01C200.16,-220.11 208.16,-227.83 214,-236 219.17,-243.24 223.51,-251.89 226.93,-259.95"/>
<polygon fill="black" stroke="black" points="223.71,-261.32 230.64,-269.34 230.22,-258.75 223.71,-261.32"/>
<text text-anchor="middle" x="227" y="-239.8" font-family="Times,serif" font-size="14.00">b</text>
</g>
<!-- q4&#45;&gt;q1 -->
<g id="edge22" class="edge">
<title>q4&#45;&gt;q1</title>
<path fill="none" stroke="black" d="M187.84,-183.5C197.67,-170.64 211.86,-152.06 223.53,-136.8"/>
<polygon fill="black" stroke="black" points="226.41,-138.79 229.7,-128.72 220.85,-134.54 226.41,-138.79"/>
<text text-anchor="middle" x="219" y="-152.8" font-family="Times,serif" font-size="14.00">d</text>
</g>
<!-- q4&#45;&gt;q4 -->
<g id="edge24" class="edge">
<title>q4&#45;&gt;q4</title>
<path fill="none" stroke="black" d="M200.53,-207.75C211.51,-208.49 221,-205.91 221,-200 221,-196.03 216.72,-193.56 210.57,-192.59"/>
<polygon fill="black" stroke="black" points="210.65,-189.09 200.53,-192.25 210.41,-196.09 210.65,-189.09"/>
<text text-anchor="middle" x="225" y="-196.3" font-family="Times,serif" font-size="14.00">c</text>
</g>
<!-- q4&#45;&gt;q5 -->
<g id="edge6" class="edge">
<title>q4&#45;&gt;q5</title>
<path fill="none" stroke="black" d="M174.95,-181.74C173.03,-150.43 168.97,-84.02 166.68,-46.43"/>
<polygon fill="black" stroke="black" points="170.16,-45.97 166.05,-36.21 163.17,-46.4 170.16,-45.97"/>
<text text-anchor="middle" x="176.5" y="-105.3" font-family="Times,serif" font-size="14.00">a</text>
</g>
<!-- q2&#45;&gt;q3 -->
<g id="edge11" class="edge">
<title>q2&#45;&gt;q3</title>
<path fill="none" stroke="black" d="M183.74,-357.41C193.39,-344.59 207.22,-326.22 218.23,-311.6"/>
<polygon fill="black" stroke="black" points="221.12,-313.59 224.34,-303.49 215.52,-309.37 221.12,-313.59"/>
<text text-anchor="middle" x="212" y="-326.8" font-family="Times,serif" font-size="14.00">b</text>
</g>
<!-- q2&#45;&gt;q1 -->
<g id="edge9" class="edge">
<title>q2&#45;&gt;q1</title>
<path fill="none" stroke="black" d="M197.36,-367.75C227.88,-359.94 277.77,-341.99 300,-305 335.72,-245.58 332.09,-210.46 300,-149 295.19,-139.78 287.09,-132.3 278.54,-126.45"/>
<polygon fill="black" stroke="black" points="280.27,-123.41 269.93,-121.14 276.6,-129.37 280.27,-123.41"/>
<text text-anchor="middle" x="330" y="-239.8" font-family="Times,serif" font-size="14.00">d</text>
</g>
<!-- q2&#45;&gt;q4 -->
<g id="edge18" class="edge">
<title>q2&#45;&gt;q4</title>
<path fill="none" stroke="black" d="M172.4,-355.88C173.09,-326 174.53,-264.11 175.37,-228.27"/>
<polygon fill="black" stroke="black" points="178.87,-228.13 175.6,-218.05 171.87,-227.97 178.87,-228.13"/>
<text text-anchor="middle" x="179" y="-283.3" font-family="Times,serif" font-size="14.00">c</text>
</g>
<!-- q2&#45;&gt;q5 -->
<g id="edge23" class="edge">
<title>q2&#45;&gt;q5</title>
<path fill="none" stroke="black" d="M157.27,-358.84C142.52,-343.07 122,-316.08 122,-288 122,-288 122,-288 122,-108 122,-83.89 134.95,-59.43 146.64,-42.28"/>
<polygon fill="black" stroke="black" points="149.58,-44.18 152.56,-34.01 143.89,-40.1 149.58,-44.18"/>
<text text-anchor="middle" x="126.5" y="-196.3" font-family="Times,serif" font-size="14.00">a</text>
</g>
<!-- q5&#45;&gt;q5 -->
<g id="edge1" class="edge">
<title>q5&#45;&gt;q5</title>
<path fill="none" stroke="black" d="M192.24,-19.97C202.02,-20.01 210,-19.35 210,-18 210,-17.18 207.04,-16.61 202.51,-16.3"/>
<polygon fill="black" stroke="black" points="202.33,-12.8 192.24,-16.03 202.15,-19.79 202.33,-12.8"/>
<text text-anchor="middle" x="215" y="-14.3" font-family="Times,serif" font-size="14.00">b</text>
</g>
<!-- q5&#45;&gt;q5 -->
<g id="edge3" class="edge">
<title>q5&#45;&gt;q5</title>
<path fill="none" stroke="black" d="M191.54,-21.55C209.91,-22.63 228,-21.45 228,-18 228,-15.2 216.06,-13.89 201.73,-14.08"/>
<polygon fill="black" stroke="black" points="201.41,-10.59 191.54,-14.45 201.66,-17.58 201.41,-10.59"/>
<text text-anchor="middle" x="232.5" y="-14.3" font-family="Times,serif" font-size="14.00">a</text>
</g>
<!-- q5&#45;&gt;q5 -->
<g id="edge4" class="edge">
<title>q5&#45;&gt;q5</title>
<path fill="none" stroke="black" d="M191.13,-22.65C217.19,-25.3 246,-23.75 246,-18 246,-12.99 224.14,-11.17 201.28,-12.53"/>
<polygon fill="black" stroke="black" points="200.82,-9.06 191.13,-13.35 201.38,-16.04 200.82,-9.06"/>
<text text-anchor="middle" x="250" y="-14.3" font-family="Times,serif" font-size="14.00">c</text>
</g>
<!-- q5&#45;&gt;q5 -->
<g id="edge7" class="edge">
<title>q5&#45;&gt;q5</title>
<path fill="none" stroke="black" d="M190.86,-23.45C224.12,-27.98 264,-26.16 264,-18 264,-10.67 231.81,-8.46 201.15,-11.36"/>
<polygon fill="black" stroke="black" points="200.39,-7.93 190.86,-12.55 201.19,-14.88 200.39,-7.93"/>
<text text-anchor="middle" x="269" y="-14.3" font-family="Times,serif" font-size="14.00">d</text>
</g>
</g>
</svg>
